<?xml version="1.0" encoding="UTF-8"?>
<svg width="800px" height="800px" viewBox="0 0 24 24" xmlns="http://www.w3.org/2000/svg" fill="none" stroke-width="2" stroke-linecap="round" stroke-linejoin="round">
  <defs>
    <!-- Colorful gradient -->
    <linearGradient id="sparkles-color" x1="0%" y1="0%" x2="100%" y2="100%">
      <stop offset="0%" style="stop-color:#667eea;stop-opacity:1" />
      <stop offset="30%" style="stop-color:#764ba2;stop-opacity:1" />
      <stop offset="60%" style="stop-color:#f093fb;stop-opacity:1" />
      <stop offset="100%" style="stop-color:#4facfe;stop-opacity:1" />
    </linearGradient>
  </defs>
  
  <!-- Exact paths from lucide-react Sparkles icon - only added color for visibility -->
  <path d="m12 3-1.912 5.813a2 2 0 0 1-1.275 1.275L3 12l5.813 1.912a2 2 0 0 1 1.275 1.275L12 21l1.912-5.813a2 2 0 0 1 1.275-1.275L21 12l-5.813-1.912a2 2 0 0 1-1.275-1.275L12 3Z" stroke="url(#sparkles-color)"/>
  <path d="M5 3v4" stroke="url(#sparkles-color)"/>
  <path d="M19 17v4" stroke="url(#sparkles-color)"/>
  <path d="M3 5h4" stroke="url(#sparkles-color)"/>
  <path d="M17 19h4" stroke="url(#sparkles-color)"/>
</svg>
